<svg xmlns="http://www.w3.org/2000/svg" width="1900" height="1280" viewBox="0 0 1900 1280" font-family="Arial, Helvetica, sans-serif">
<rect x="0" y="0" width="1900" height="1280" fill="white"/>
<defs>
<marker id="arrow" viewBox="0 0 10 10" refX="8" refY="5" markerWidth="8" markerHeight="8" orient="auto-start-reverse">
<path d="M1 1L9 5L1 9Z" fill="#E08A2B"/>
</marker>
</defs>
<text x="50" y="60" font-size="40" font-weight="bold" fill="#1a1a1a" text-anchor="start" >Drehspiegel</text>
<rect x="55" y="95" width="30" height="480" fill="#9E9E9E"/>
<rect x="560" y="110" width="300" height="100" fill="white" stroke="#C62828" stroke-width="5"/>
<text x="710.0" y="172.0" font-size="38" font-weight="bold" fill="#1a1a1a" text-anchor="middle" >Laser</text>
<line x1="85" y1="300" x2="560" y2="160.0" stroke="#D6231D" stroke-width="5" fill="none"/>
<circle cx="1000" cy="560" r="300" fill="#BDBDBD"/>
<text x="1000" y="550" font-size="30" font-weight="bold" fill="#1a1a1a" text-anchor="middle" >Bildtrommel</text>
<text x="1000" y="590" font-size="26" font-weight="normal" fill="#1a1a1a" text-anchor="middle" >(rotiert)</text>
<line x1="85" y1="300" x2="740" y2="410" stroke="#D6231D" stroke-width="5" fill="none"/>
<line x1="1297.0518139898459" y1="416.6487628610421" x2="1297.0518139898459" y2="506.6487628610421" stroke="#6A1B9A" stroke-width="6"/>
<line x1="1297.0518139898459" y1="431.6487628610421" x2="1275.0518139898459" y2="431.6487628610421" stroke="#6A1B9A" stroke-width="3"/>
<line x1="1297.0518139898459" y1="461.6487628610421" x2="1275.0518139898459" y2="461.6487628610421" stroke="#6A1B9A" stroke-width="3"/>
<line x1="1297.0518139898459" y1="491.6487628610421" x2="1275.0518139898459" y2="491.6487628610421" stroke="#6A1B9A" stroke-width="3"/>
<text x="1377.0518139898459" y="401.6487628610421" font-size="26" font-weight="bold" fill="#6A1B9A" text-anchor="start" >Corona-Draht</text>
<text x="1377.0518139898459" y="437.6487628610421" font-size="22" font-weight="normal" fill="#6A1B9A" text-anchor="start" >(Hochspannung, negativ)</text>
<text x="1377.0518139898459" y="471.6487628610421" font-size="22" font-weight="normal" fill="#6A1B9A" text-anchor="start" >lädt Trommel</text>
<text x="1377.0518139898459" y="499.6487628610421" font-size="22" font-weight="normal" fill="#6A1B9A" text-anchor="start" >gleichmäßig auf</text>
<line x1="1337.0518139898459" y1="461.6487628610421" x2="1363.0518139898459" y2="461.6487628610421" stroke="#6A1B9A" stroke-width="1.5" stroke-dasharray="4 3"/>
<circle cx="1255.0" cy="560.0" r="22" fill="#2E8B4F"/>
<rect x="1244.0" y="557.0" width="22" height="6" fill="white"/>
<circle cx="1180.3122292025696" cy="379.6877707974304" r="22" fill="#2E8B4F"/>
<rect x="1169.3122292025696" y="376.6877707974304" width="22" height="6" fill="white"/>
<circle cx="1000.0" cy="305.0" r="22" fill="#2E8B4F"/>
<rect x="989.0" y="302.0" width="22" height="6" fill="white"/>
<circle cx="745.0" cy="560.0" r="22" fill="#2E8B4F"/>
<rect x="734.0" y="557.0" width="22" height="6" fill="white"/>
<circle cx="819.6877707974304" cy="740.3122292025696" r="22" fill="#2E8B4F"/>
<rect x="808.6877707974304" y="737.3122292025696" width="22" height="6" fill="white"/>
<circle cx="1000.0" cy="815.0" r="22" fill="#2E8B4F"/>
<rect x="989.0" y="812.0" width="22" height="6" fill="white"/>
<circle cx="1180.3122292025696" cy="740.3122292025696" r="22" fill="#2E8B4F"/>
<rect x="1169.3122292025696" y="737.3122292025696" width="22" height="6" fill="white"/>
<circle cx="793.7006664343885" cy="410.11476066541934" r="13" fill="#A5D6A7"/>
<rect x="782.7006664343885" y="407.11476066541934" width="22" height="6" fill="white"/>
<circle cx="767.0459083011368" cy="456.2821560156709" r="13" fill="#A5D6A7"/>
<rect x="756.0459083011368" y="453.2821560156709" width="22" height="6" fill="white"/>
<rect x="60" y="560" width="300" height="150" fill="#1A0F33"/>
<text x="210.0" y="649.0" font-size="36" font-weight="bold" fill="white" text-anchor="middle" >Toner</text>
<circle cx="520" cy="660" r="90" fill="#5C6BC0"/>
<text x="520" y="784" font-size="24" font-weight="bold" fill="#1a1a1a" text-anchor="middle" >Entwicklerwalze</text>
<circle cx="457.98028702813" cy="682.5733294594942" r="14" fill="#2E8B4F"/>
<rect x="446.98028702813" y="679.5733294594942" width="22" height="6" fill="white"/>
<circle cx="497.4266705405059" cy="722.0197129718699" r="14" fill="#2E8B4F"/>
<rect x="486.4266705405059" y="719.0197129718699" width="22" height="6" fill="white"/>
<circle cx="553.0" cy="717.157676649773" r="14" fill="#2E8B4F"/>
<rect x="542.0" y="714.157676649773" width="22" height="6" fill="white"/>
<circle cx="582.0197129718699" cy="682.5733294594942" r="14" fill="#2E8B4F"/>
<rect x="571.0197129718699" y="679.5733294594942" width="22" height="6" fill="white"/>
<line x1="60" y1="980" x2="1840" y2="980" stroke="#1a1a1a" stroke-width="4"/>
<rect x="60" y="895.0" width="260" height="170" fill="#1E88E5"/>
<text x="190.0" y="992" font-size="32" font-weight="bold" fill="#0d2b4a" text-anchor="middle" >Papier</text>
<line x1="340" y1="980" x2="500" y2="980" stroke="#E08A2B" stroke-width="10" marker-end="url(#arrow)"/>
<circle cx="880" cy="1110" r="130" fill="#C62828"/>
<circle cx="972.0" cy="1110.0" r="17" fill="#C62828"/>
<rect x="961.0" y="1107.0" width="22" height="6" fill="white"/>
<rect x="969.0" y="1099.0" width="6" height="22" fill="white"/>
<circle cx="950.476088766946" cy="1050.8635399088384" r="17" fill="#C62828"/>
<rect x="939.476088766946" y="1047.8635399088384" width="22" height="6" fill="white"/>
<rect x="947.476088766946" y="1039.8635399088384" width="6" height="22" fill="white"/>
<circle cx="895.9756323453576" cy="1019.3976867228769" r="17" fill="#C62828"/>
<rect x="884.9756323453576" y="1016.3976867228769" width="22" height="6" fill="white"/>
<rect x="892.9756323453576" y="1008.3976867228769" width="6" height="22" fill="white"/>
<circle cx="834.0" cy="1030.3256628518316" r="17" fill="#C62828"/>
<rect x="823.0" y="1027.3256628518316" width="22" height="6" fill="white"/>
<rect x="831.0" y="1019.3256628518316" width="6" height="22" fill="white"/>
<circle cx="793.5482788876965" cy="1078.5341468140384" r="17" fill="#C62828"/>
<rect x="782.5482788876965" y="1075.5341468140384" width="22" height="6" fill="white"/>
<rect x="790.5482788876965" y="1067.5341468140384" width="6" height="22" fill="white"/>
<circle cx="793.5482788876964" cy="1141.4658531859616" r="17" fill="#C62828"/>
<rect x="782.5482788876964" y="1138.4658531859616" width="22" height="6" fill="white"/>
<rect x="790.5482788876964" y="1130.4658531859616" width="6" height="22" fill="white"/>
<circle cx="834.0" cy="1189.6743371481684" r="17" fill="#C62828"/>
<rect x="823.0" y="1186.6743371481684" width="22" height="6" fill="white"/>
<rect x="831.0" y="1178.6743371481684" width="6" height="22" fill="white"/>
<circle cx="895.9756323453576" cy="1200.6023132771231" r="17" fill="#C62828"/>
<rect x="884.9756323453576" y="1197.6023132771231" width="22" height="6" fill="white"/>
<rect x="892.9756323453576" y="1189.6023132771231" width="6" height="22" fill="white"/>
<circle cx="950.476088766946" cy="1169.1364600911616" r="17" fill="#C62828"/>
<rect x="939.476088766946" y="1166.1364600911616" width="22" height="6" fill="white"/>
<rect x="947.476088766946" y="1158.1364600911616" width="6" height="22" fill="white"/>
<text x="1035" y="1118" font-size="25" font-weight="bold" fill="#C62828" text-anchor="start" >Übertragungswalze</text>
<line x1="1030" y1="980" x2="1190" y2="980" stroke="#E08A2B" stroke-width="10" marker-end="url(#arrow)"/>
<circle cx="1430" cy="900" r="80" fill="#F2B6C8"/>
<circle cx="1430" cy="1060" r="80" fill="#1a1a1a"/>
<text x="1430" y="780" font-size="26" font-weight="bold" fill="#1a1a1a" text-anchor="middle" >Fixierwalzen</text>
<text x="1430" y="808" font-size="24" font-weight="normal" fill="#1a1a1a" text-anchor="middle" >(Wärme + Druck)</text>
<line x1="1530" y1="980" x2="1690" y2="980" stroke="#E08A2B" stroke-width="10" marker-end="url(#arrow)"/>
<rect x="1620" y="895.0" width="260" height="170" fill="#1E88E5"/>
<text x="1750.0" y="992" font-size="32" font-weight="bold" fill="#0d2b4a" text-anchor="middle" >Papier</text>
<circle cx="1550" cy="60" r="18" fill="#2E8B4F"/>
<rect x="1539" y="57" width="22" height="6" fill="white"/>
<text x="1584" y="68" font-size="22" font-weight="normal" fill="#1a1a1a" text-anchor="start" >negative Ladung</text>
<circle cx="1550" cy="110" r="18" fill="#C62828"/>
<rect x="1539" y="107" width="22" height="6" fill="white"/>
<rect x="1547" y="99" width="6" height="22" fill="white"/>
<text x="1584" y="118" font-size="22" font-weight="normal" fill="#1a1a1a" text-anchor="start" >positive Ladung</text>
</svg>